<svg fill="none" height="899" viewBox="0 0 1440 899" width="1440" xmlns="http://www.w3.org/2000/svg" xmlns:xlink="http://www.w3.org/1999/xlink"><clipPath id="a"><path d="m0 0h1440v899h-1440z"/></clipPath><clipPath id="b"><path d="m0 0h1440v899h-1440z"/></clipPath><g clip-path="url(#a)"><g clip-path="url(#b)"><path d="m0 0h1440v899h-1440z" fill="#3a5a40"/></g><g fill="#588157"><circle cx="1034.29" cy="541.278" r="102.511"/><path clip-rule="evenodd" d="m75.4424 280.633c125.2836 0 226.8456-101.563 226.8456-226.8459 0-125.2832-101.562-226.8451-226.8456-226.8451-125.2832 0-226.8454 101.5619-226.8454 226.8451 0 125.2829 101.5622 226.8459 226.8454 226.8459z" fill-rule="evenodd"/><path clip-rule="evenodd" d="m1297.56 490.151c109.29 0 197.89-88.695 197.89-198.107 0-109.411-88.6-198.1066-197.89-198.1066s-197.89 88.6956-197.89 198.1066c0 109.412 88.6 198.107 197.89 198.107zm0-100.891c53.63 0 97.11-43.525 97.11-97.216s-43.48-97.216-97.11-97.216-97.11 43.525-97.11 97.216 43.48 97.216 97.11 97.216z" fill-rule="evenodd"/><rect height="183.72" rx="8" transform="matrix(.965983 .258605 -.259033 .965868 312.775 257.055)" width="187.362"/><path d="m1261.25 614.003c6.62-3.92 15.01.802 15.09 8.499l3.33 311.603c.08 7.697-8.2 12.598-14.9 8.82l-271.527-152.914c-6.707-3.777-6.81-13.399-.185-17.319z"/><path clip-rule="evenodd" d="m309.796 815.034c1.103 1.414 3.137 1.689 4.551.585 67.117-52.403 79.092-149.354 26.747-216.546-52.345-67.191-149.188-79.18-216.305-26.777-1.487 1.161-1.726 3.307-.565 4.795l44.174 56.641c1.124 1.441 3.219 1.648 4.66.523 32.936-25.715 80.459-19.832 106.146 13.141 25.686 32.972 19.81 80.548-13.126 106.264-1.407 1.098-1.706 3.131-.609 4.538z" fill-rule="evenodd"/></g></g></svg>