<svg width="256" height="256" viewBox="0 0 256 256" fill="none" xmlns="http://www.w3.org/2000/svg">
  <circle cx="128" cy="128" r="128" fill="#588157"/>
  <path
    d="M147.128 43.0891H110.667V58.2279C110.636 74.0984 98.5931 86.9998 83.7065 86.9998C82.6091 86.9965 81.5131 86.9232 80.425 86.7803L79.8416 86.7176V123.853H98.4473V159.515C98.4473 173.88 101.062 184.973 106.219 192.501C114.553 204.618 123.595 211.644 144.764 211.644C156.087 211.644 166.974 209.176 174.631 204.9L174.891 204.743V161.115L174.183 161.387C170.987 162.526 167.614 163.081 164.224 163.028C156.358 163.028 153.035 160.738 149.931 156.755C148.045 154.319 147.087 150.681 147.087 145.945V123.853H174.849V82.1801H147.128V43.0891Z"
    fill="#3a5a40"/>
</svg>
